<!-- icon666.com - MILLIONS vector ICONS FREE --><svg id="Capa_1" enable-background="new 0 0 512 512" viewBox="0 0 512 512" xmlns="http://www.w3.org/2000/svg"><g><circle cx="146.682" cy="362" r="47.5" fill="#000000" style="fill: rgb(31, 31, 31);"></circle><path d="m225 124.5c-11.491 0-20.84 9.349-20.84 20.84v53.319c0 11.491 9.349 20.84 20.84 20.84s20.84-9.349 20.84-20.84v-53.319c0-11.491-9.349-20.84-20.84-20.84z" fill="#000000" style="fill: rgb(31, 31, 31);"></path><path d="m497 0h-482c-8.284 0-15 6.716-15 15v482c0 8.284 6.716 15 15 15h482c8.284 0 15-6.716 15-15v-482c0-8.284-6.716-15-15-15zm-429.5 195.855c0-6.903 5.597-12.5 12.5-12.5s12.5 5.597 12.5 12.5c0 1.109.077 2.225.229 3.316 1.65 11.826 11.979 20.564 23.909 20.323 12.325-.249 22.479-10.072 23.117-22.365.341-6.565-1.955-12.797-6.466-17.547-4.514-4.754-10.603-7.373-17.146-7.373-9.346 0-13.17 1.407-17.938 3.553-.533.24-.87.405-.969.455-4.202 2.172-9.247 1.775-13.071-1.007-3.824-2.783-5.729-7.497-4.956-12.163l8.796-53.091c1-6.033 6.217-10.457 12.332-10.457h44.402c6.903 0 12.5 5.597 12.5 12.5s-5.597 12.5-12.5 12.5h-33.803l-3.832 23.13c2.704-.276 5.678-.42 9.038-.42 13.271 0 26.13 5.525 35.276 15.159 9.277 9.771 14.001 22.577 13.302 36.057-1.314 25.319-22.214 45.553-47.58 46.064-.331.006-.663.01-.993.01-24.208.001-44.826-17.84-48.181-41.875-.309-2.233-.466-4.509-.466-6.769zm79.182 238.645c-39.977 0-72.5-32.523-72.5-72.5s32.523-72.5 72.5-72.5 72.5 32.523 72.5 72.5-32.524 72.5-72.5 72.5zm32.478-235.84v-53.32c0-25.276 20.563-45.84 45.84-45.84s45.84 20.564 45.84 45.84v53.319c0 25.276-20.563 45.84-45.84 45.84s-45.84-20.563-45.84-45.839zm136.158 115.84h-36.137v33.864h32.273c6.903 0 12.5 5.596 12.5 12.5s-5.597 12.5-12.5 12.5h-32.273v48.636c0 6.903-5.597 12.5-12.5 12.5s-12.5-5.597-12.5-12.5v-120c0-6.903 5.597-12.5 12.5-12.5h48.637c6.903 0 12.5 5.597 12.5 12.5s-5.596 12.5-12.5 12.5zm-19.909-201.57c0-22.569 16.427-40.93 36.617-40.93s36.617 18.361 36.617 40.93-16.427 40.93-36.617 40.93-36.617-18.361-36.617-40.93zm48.146 129.3c-1.29 0-2.602-.251-3.866-.782-5.092-2.137-7.488-7.998-5.351-13.09l60.239-143.538c2.137-5.092 7.996-7.489 13.091-5.351 5.092 2.137 7.488 7.998 5.351 13.09l-60.239 143.538c-1.607 3.829-5.318 6.133-9.225 6.133zm81.763 72.27h-36.137v33.864h32.273c6.903 0 12.5 5.596 12.5 12.5s-5.597 12.5-12.5 12.5h-32.273v48.636c0 6.903-5.597 12.5-12.5 12.5s-12.5-5.597-12.5-12.5v-120c0-6.903 5.597-12.5 12.5-12.5h48.637c6.903 0 12.5 5.597 12.5 12.5s-5.596 12.5-12.5 12.5zm-11.935-62.5c-20.19 0-36.617-18.361-36.617-40.93s16.427-40.931 36.617-40.931 36.617 18.361 36.617 40.931c0 22.569-16.427 40.93-36.617 40.93z" fill="#000000" style="fill: rgb(31, 31, 31);"></path><ellipse cx="332.026" cy="112.93" rx="16.617" ry="20.93" fill="#000000" style="fill: rgb(31, 31, 31);"></ellipse><path d="m413.383 190.139c-9.163 0-16.617 9.39-16.617 20.931s7.454 20.93 16.617 20.93 16.617-9.389 16.617-20.93-7.454-20.931-16.617-20.931z" fill="#000000" style="fill: rgb(31, 31, 31);"></path></g></svg>