<!-- icon666.com - MILLIONS vector ICONS FREE --><svg version="1.1" id="Layer_1" xmlns="http://www.w3.org/2000/svg" xmlns:xlink="http://www.w3.org/1999/xlink" x="0px" y="0px" viewBox="0 0 512.001 512.001" style="enable-background:new 0 0 512.001 512.001;" xml:space="preserve"><path style="" d="M124.656,93.482c-42.732,42.475-53.976,125.049-23.127,205.759S195.833,433.974,256,437.119 c42.732-42.475,53.976-125.049,23.127-205.759S184.824,96.627,124.656,93.482z" fill="#87A658"></path><path style="fill: rgb(161, 184, 141);" d="M10.625,163.023c-24.751,54.932-5.773,136.078,51.859,200.455s136.192,92.184,193.517,73.64 c24.751-54.932,5.773-136.078-51.859-200.455S67.95,144.479,10.625,163.023z" fill="#A3C96A"></path><path style="" d="M387.345,93.482c42.732,42.475,53.976,125.049,23.127,205.759s-94.304,134.733-154.471,137.878 c-42.732-42.475-53.976-125.049-23.127-205.759S327.176,96.627,387.345,93.482z" fill="#87A658"></path><path style="fill: rgb(161, 184, 141);" d="M501.376,163.023c24.751,54.932,5.773,136.078-51.859,200.455s-136.191,92.184-193.516,73.64 c-24.751-54.932-5.773-136.078,51.859-200.455S444.051,144.479,501.376,163.023z" fill="#A3C96A"></path><path style="opacity:0.1;enable-background:new ;" d="M307.858,236.664C250.227,301.041,231.25,382.187,256,437.119 c13.019,4.211,27.135,6.024,41.85,5.569c48.865-38.57,79.936-110.04,79.936-189.511c0-23.512-2.724-46.322-7.819-67.79 C348.002,198.298,326.8,215.505,307.858,236.664z" fill="#000000"></path><path style="opacity:0.1;enable-background:new ;" d="M142.033,185.387c-5.095,21.467-7.819,44.278-7.819,67.79 c0,79.471,31.07,150.939,79.936,189.511c14.715,0.455,28.832-1.357,41.851-5.569c24.751-54.932,5.773-136.078-51.859-200.455 C185.2,215.505,163.998,198.298,142.033,185.387z" fill="#000000"></path><path style="fill: rgb(161, 184, 141);" d="M256.001,69.237c-55.079,24.42-95.065,97.536-95.065,183.941S200.92,412.7,256.001,437.119 c55.079-24.419,95.065-97.536,95.065-183.941S311.08,93.655,256.001,69.237z" fill="#B9E578"></path></svg>